<svg xmlns="http://www.w3.org/2000/svg" width="424" height="585" viewBox="0 0 424 585" role="img" aria-label="Prosocian symbol">
<path fill="#84B3B2" d="M 197 1 L 195 0 L 191 0 L 187 2 L 185 4 L 184 4 L 161 20 L 158 21 L 150 27 L 147 28 L 145 30 L 138 33 L 136 35 L 129 38 L 127 40 L 99 54 L 97 54 L 88 59 L 86 59 L 81 62 L 79 62 L 76 64 L 71 65 L 63 69 L 58 70 L 55 72 L 53 72 L 52 73 L 50 73 L 46 75 L 43 75 L 42 76 L 40 76 L 36 78 L 33 78 L 29 80 L 26 80 L 25 81 L 22 81 L 21 82 L 18 82 L 17 83 L 10 84 L 3 88 L 1 92 L 1 94 L 0 95 L 0 268 L 3 272 L 5 272 L 6 273 L 56 273 L 57 272 L 69 272 L 70 271 L 75 271 L 76 270 L 80 270 L 81 269 L 88 268 L 89 267 L 91 267 L 92 266 L 100 264 L 114 257 L 116 255 L 119 254 L 121 252 L 125 250 L 128 247 L 129 247 L 133 243 L 134 243 L 143 234 L 144 234 L 147 231 L 147 230 L 154 223 L 154 222 L 162 213 L 162 212 L 168 204 L 169 201 L 171 199 L 172 196 L 174 194 L 183 176 L 183 174 L 187 166 L 187 164 L 188 163 L 188 161 L 189 160 L 189 158 L 190 157 L 190 155 L 192 151 L 192 148 L 193 147 L 194 141 L 195 140 L 196 131 L 197 130 L 197 125 L 198 124 L 198 115 L 199 114 L 199 4 Z"/>
<path fill="#A1C0EC" d="M 230 1 L 227 5 L 227 113 L 228 114 L 229 127 L 230 128 L 230 132 L 231 133 L 231 137 L 232 138 L 232 141 L 233 142 L 234 149 L 235 150 L 235 152 L 236 153 L 236 155 L 237 156 L 237 158 L 238 159 L 240 167 L 242 170 L 242 172 L 245 177 L 245 179 L 251 191 L 253 193 L 256 200 L 258 202 L 258 203 L 260 205 L 264 212 L 271 220 L 271 221 L 280 230 L 280 231 L 281 231 L 296 245 L 297 245 L 300 248 L 301 248 L 309 254 L 316 257 L 318 259 L 322 261 L 324 261 L 327 263 L 329 263 L 332 265 L 334 265 L 337 267 L 340 267 L 344 269 L 352 270 L 353 271 L 358 271 L 359 272 L 367 272 L 368 273 L 418 273 L 419 272 L 421 272 L 424 268 L 424 93 L 423 92 L 422 88 L 417 84 L 415 84 L 414 83 L 412 83 L 411 82 L 409 82 L 405 80 L 402 80 L 401 79 L 399 79 L 398 78 L 396 78 L 395 77 L 393 77 L 392 76 L 390 76 L 389 75 L 387 75 L 386 74 L 384 74 L 383 73 L 375 71 L 372 69 L 367 68 L 364 66 L 359 65 L 351 61 L 349 61 L 343 58 L 341 58 L 325 50 L 323 50 L 297 37 L 295 35 L 284 30 L 282 28 L 279 27 L 277 25 L 269 21 L 264 17 L 261 16 L 238 0 L 232 0 Z"/>
<path fill="#9E90CC" d="M 4 303 L 0 307 L 0 319 L 1 320 L 1 330 L 2 331 L 3 342 L 4 343 L 5 352 L 6 353 L 6 356 L 8 360 L 8 363 L 9 364 L 10 371 L 11 372 L 11 374 L 12 375 L 12 377 L 13 378 L 15 386 L 17 389 L 18 394 L 23 404 L 23 406 L 37 434 L 39 436 L 40 439 L 42 441 L 43 444 L 45 446 L 46 449 L 48 451 L 48 452 L 50 454 L 54 461 L 57 464 L 59 468 L 62 471 L 62 472 L 65 475 L 65 476 L 68 479 L 68 480 L 74 486 L 74 487 L 79 492 L 79 493 L 92 506 L 92 507 L 99 513 L 99 514 L 100 514 L 121 534 L 122 534 L 128 540 L 129 540 L 138 548 L 139 548 L 158 563 L 162 565 L 165 568 L 169 570 L 172 573 L 173 573 L 175 575 L 176 575 L 178 577 L 179 577 L 189 584 L 195 584 L 199 579 L 199 464 L 198 463 L 198 454 L 197 453 L 197 448 L 196 447 L 196 442 L 195 441 L 195 438 L 194 437 L 194 433 L 193 432 L 192 426 L 191 425 L 191 423 L 190 422 L 190 420 L 189 419 L 189 417 L 188 416 L 186 408 L 184 405 L 184 403 L 170 375 L 168 373 L 168 372 L 166 370 L 166 369 L 164 367 L 160 360 L 144 342 L 143 342 L 136 335 L 135 335 L 124 326 L 118 323 L 116 321 L 98 312 L 93 311 L 90 309 L 87 309 L 83 307 L 79 307 L 75 305 L 70 305 L 69 304 L 62 304 L 61 303 Z"/>
<path fill="#D9927E" d="M 421 303 L 362 303 L 361 304 L 355 304 L 354 305 L 350 305 L 349 306 L 346 306 L 342 308 L 339 308 L 338 309 L 330 311 L 323 315 L 321 315 L 317 317 L 315 319 L 305 324 L 295 332 L 294 332 L 290 336 L 289 336 L 270 355 L 270 356 L 266 360 L 266 361 L 260 368 L 257 374 L 255 376 L 254 379 L 252 381 L 243 399 L 243 401 L 241 404 L 241 406 L 237 414 L 236 420 L 235 421 L 234 427 L 233 428 L 232 434 L 231 435 L 231 439 L 230 440 L 230 444 L 229 445 L 229 450 L 228 451 L 228 457 L 227 458 L 227 470 L 226 471 L 226 578 L 228 582 L 230 584 L 232 584 L 233 585 L 237 584 L 247 577 L 248 577 L 251 574 L 255 572 L 258 569 L 259 569 L 262 566 L 266 564 L 270 560 L 271 560 L 274 557 L 275 557 L 278 554 L 279 554 L 283 550 L 284 550 L 288 546 L 289 546 L 294 541 L 295 541 L 302 534 L 303 534 L 335 503 L 335 502 L 349 487 L 349 486 L 357 477 L 357 476 L 360 473 L 364 466 L 367 463 L 367 462 L 371 457 L 372 454 L 378 446 L 384 434 L 386 432 L 396 412 L 396 410 L 402 398 L 402 396 L 406 388 L 408 380 L 410 377 L 410 375 L 411 374 L 411 372 L 413 368 L 413 365 L 415 361 L 415 358 L 417 354 L 417 351 L 418 350 L 418 347 L 419 346 L 419 342 L 420 341 L 420 338 L 421 337 L 421 333 L 422 332 L 422 328 L 423 327 L 423 319 L 424 318 L 424 306 Z"/>
</svg>
